<svg xmlns="http://www.w3.org/2000/svg" height="512" viewBox="0 0 64 64" width="512"><g id="Layer_2" data-name="Layer 2"><path d="m32.51465 56.99414a1.00047 1.00047 0 0 1 -.01947-2 22.79669 22.79669 0 0 0 2.79974-.22852.99479.99479 0 0 1 1.13281.84766c.13227 1.71599-2.77189 1.18843-3.91308 1.38086zm-3.90137-.23144a22.23343 22.23343 0 0 1 -3.13574-.62206 1.00015 1.00015 0 0 1 .51953-1.93166 23.04917 23.04917 0 0 0 2.75586.56348 1.00161 1.00161 0 0 1 -.13965 1.99024zm10.63672-.877a1.0027 1.0027 0 0 1 -.3017-1.95313 23.02729 23.02729 0 0 0 2.624-1.01269.99984.99984 0 0 1 .832 1.81836 16.22355 16.22355 0 0 1 -3.1543 1.1475zm-17.19434-1.03609a12.77621 12.77621 0 0 1 -3.1143-1.52724 1.00066 1.00066 0 0 1 1.047-1.70515 22.884 22.884 0 0 0 2.48335 1.32223 1.00524 1.00524 0 0 1 -.41605 1.91016zm23.3418-1.93261a1.006 1.006 0 0 1 -.55951-1.82911 23.38194 23.38194 0 0 0 2.23139-1.71089.9998.9998 0 0 1 1.31049 1.50981c-.94469.69264-1.83216 1.75481-2.98237 2.03019zm-29.08887-1.75587c-1.15218-.25056-1.98316-1.61173-2.83995-2.37971a.99985.99985 0 0 1 1.48253-1.342 23.32367 23.32367 0 0 0 2.01172 1.96582 1.0065 1.0065 0 0 1 -.6543 1.75589zm34.15041-2.82324a1.00672 1.00672 0 0 1 -.76753-1.63966 23.34656 23.34656 0 0 0 1.664-2.26854 1 1 0 0 1 1.6816 1.08208 25.22329 25.22329 0 0 1 -1.80855 2.46577.99848.99848 0 0 1 -.76952.36035zm-38.6299-2.3291a.99933.99933 0 0 1 -.84082-.457 25.10848 25.10848 0 0 1 -1.498-2.66211.99994.99994 0 0 1 1.79886-.873 23.13039 23.13039 0 0 0 1.37886 2.44914 1.00633 1.00633 0 0 1 -.8389 1.54297zm42.208-3.48926a1.00537 1.00537 0 0 1 -.917-1.39649 23.074 23.074 0 0 0 .95506-2.64648 1.00051 1.00051 0 0 1 1.9199.56256 24.97464 24.97464 0 0 1 -1.03905 2.8769.99955.99955 0 0 1 -.9189.60351zm-45.05761-2.71289a1.0001 1.0001 0 0 1 -.959-.7168 24.8771 24.8771 0 0 1 -.68262-2.97949.99989.99989 0 0 1 1.97266-.32611c-.03362 1.21402 1.65074 3.79641-.33104 4.0224zm46.84473-3.87793a1.00184 1.00184 0 0 1 -.99414-1.12012 23.28745 23.28745 0 0 0 .16992-2.80859 1.04312 1.04312 0 0 1 1-1.0498.967.967 0 0 1 1 1.0498 25.468 25.468 0 0 1 -.18358 3.04882 1.00032 1.00032 0 0 1 -.9922.87989zm-47.82322-2.9043a.97808.97808 0 0 1 -1-.97461h1l-1-.01074c.16765-1.16776-.42256-3.99994 1.28892-3.91216a1.00126 1.00126 0 0 1 .87416 1.11236 23.12741 23.12741 0 0 0 -.16408 2.76074 1.02036 1.02036 0 0 1 -.999 1.02441zm47.667-4.01953a1.0004 1.0004 0 0 1 -.98535-.835 22.90929 22.90929 0 0 0 -.63379-2.73926 1 1 0 0 1 .67383-1.24316c1.67605-.38452 1.57947 2.57107 1.93276 3.65227a1.003 1.003 0 0 1 -.98745 1.16515zm-46.7178-2.71582c-2.07513-.27725-.23886-3.01113.07212-4.1582a1.00031 1.00031 0 0 1 1.838.78912 23.19116 23.19116 0 0 0 -.95016 2.64838.99954.99954 0 0 1 -.95996.7207zm44.63867-3.78613a1.00133 1.00133 0 0 1 -.90039-.5625 22.84562 22.84562 0 0 0 -1.38282-2.44629 1.00032 1.00032 0 1 1 1.67774-1.08984 25.0311 25.0311 0 0 1 1.5039 2.66113 1.0058 1.0058 0 0 1 -.89843 1.4375zm-41.81348-2.43164a1.006 1.006 0 0 1 -.84079-1.53907c.74686-.85463 1.824-3.61165 3.21081-2.6007a.99844.99844 0 0 1 .13193 1.40735 23.30147 23.30147 0 0 0 -1.65918 2.27148.99708.99708 0 0 1 -.84277.46094zm37.98145-3.21777a.99677.99677 0 0 1 -.73926-.32715 23.16479 23.16479 0 0 0 -2.0166-1.96192.99944.99944 0 0 1 -.10547-1.41015c1.19717-1.23047 2.71885 1.30753 3.60067 2.02622a1.00668 1.00668 0 0 1 -.73934 1.673zm-33.51856-1.95313a1.00679 1.00679 0 0 1 -.65718-1.75392c.95545-.6093 2.75919-2.95406 3.81044-1.5968a1.00043 1.00043 0 0 1 -.26752 1.38881c-.98502.50113-1.86387 1.76209-2.88574 1.96191zm28.25391-2.39648c-1.05982-.25648-1.95839-1.09318-3.0069-1.46274a1.00068 1.00068 0 0 1 .82629-1.82239 25.05488 25.05488 0 0 1 2.70307 1.43161 1.00006 1.00006 0 0 1 -.52246 1.85352zm-22.52442-1.3125a1.00521 1.00521 0 0 1 -.41985-1.90821 25.018 25.018 0 0 1 2.84954-1.10644.99971.99971 0 1 1 .60938 1.90429c-1.04384.26451-2.00593.87027-3.03907 1.11036zm16.24903-1.37891c-.99965-.18294-1.99708-.47729-3.01564-.59174a.99993.99993 0 0 1 .27736-1.98053 25.22253 25.22253 0 0 1 2.99511.60645 1.00237 1.00237 0 0 1 -.25683 1.96582zm-9.70508-.5605a1.00143 1.00143 0 0 1 -.1435-1.98926c1.13333.00233 3.91783-.98358 4.06638.72154a1.00036 1.00036 0 0 1 -.9776 1.02256 27.26346 27.26346 0 0 0 -2.94528.24516z" fill="#d6d6d6"></path><path d="m32.34 5v24a1.99947 1.99947 0 0 1 -2 2h-24a2.00587 2.00587 0 0 1 -2-2v-24a2.00583 2.00583 0 0 1 2-2h24a1.99943 1.99943 0 0 1 2 2z" fill="#fc8d98"></path><path d="m32.34 13.01v15.99a1.99947 1.99947 0 0 1 -2 2h-15.31a17.00785 17.00785 0 0 1 17.31-17.99z" opacity=".1"></path><path d="m49 32c.13169 14.20444-16.96263 22.30822-27.8701 13.05976-12.1002-9.96069-5.02145-30.07256 10.87036-30.05966a17.02406 17.02406 0 0 1 16.99974 16.9999z" fill="#4cd0f7"></path><path d="m48.67 35.35a17.01623 17.01623 0 0 1 -17.21 13.64l10.42-18.83a2.23536 2.23536 0 0 1 3.92 0z" opacity=".1"></path><path d="m57.41 61h-27.14a2.24115 2.24115 0 0 1 -2.13-2.94 2.196 2.196 0 0 1 .17-.39l13.57-24.51a2.23536 2.23536 0 0 1 3.92 0l13.57 24.51a2.24026 2.24026 0 0 1 -1.96 3.33z" fill="#fedb8e"></path></g></svg>